<?xml version="1.0" encoding="UTF-8"?>
<svg width="475px" height="475px" viewBox="0 0 475 475" version="1.1" xmlns="http://www.w3.org/2000/svg" xmlns:xlink="http://www.w3.org/1999/xlink">
    <!-- Generator: Sketch 47 (45396) - http://www.bohemiancoding.com/sketch -->
    <title>Untitled</title>
    <desc>Created with Sketch.</desc>
    <defs></defs>
    <g id="Page-1" stroke="none" stroke-width="1" fill="none" fill-rule="evenodd">
        <g id="bonfire" fill-rule="nonzero">
            <circle id="Oval" fill="#344E5D" cx="237.042" cy="236.966" r="236.966"></circle>
            <path d="M237.016,474.085 C337.797,474.085 423.827,411.141 458.09,322.45 C396.22,285.152 315.768,267.45 227.807,267.45 C146.921,267.45 72.393,282.432 12.813,313.84 C44.708,407.044 133.006,474.085 237.016,474.085 Z" id="Shape" fill="#4D8353"></path>
            <g id="Group" transform="translate(292.000000, 70.000000)" fill="#D7DABA">
                <polygon id="Shape" points="71.039 42.369 74.837 54.051 87.113 54.051 77.179 61.268 80.977 72.946 71.039 65.725 61.104 72.946 64.902 61.268 54.964 54.051 67.245 54.051"></polygon>
                <polygon id="Shape" points="12.031 0.97 14.662 9.063 23.167 9.063 16.282 14.062 18.916 22.152 12.031 17.153 5.146 22.152 7.777 14.062 0.892 9.063 9.401 9.063"></polygon>
                <polygon id="Shape" points="72.431 122.282 75.061 130.379 83.57 130.379 76.685 135.378 79.315 143.467 72.431 138.468 65.546 143.467 68.18 135.378 61.295 130.379 69.8 130.379"></polygon>
            </g>
            <g id="Group" transform="translate(77.000000, 321.000000)">
                <g transform="translate(5.000000, 5.000000)" id="Shape" fill="#EDECED">
                    <path d="M152.6,30.4387097 C125.5,18.2451613 43.1,-1.98709677 24,0.541935484 C13.7,23.3935484 7.4,36.2193548 0.8,53.7419355 C34.1,53.7419355 111,55.3677419 120.1,55.3677419 C126.7,41.1870968 136.5,31.883871 152.6,30.4387097 Z"></path>
                    <path d="M151.4,30.4387097 C178.5,18.2451613 260.9,-1.98709677 280,0.541935484 C290.3,23.3935484 296.6,36.2193548 303.2,53.7419355 C269.9,53.7419355 193,55.3677419 183.9,55.3677419 C177.2,41.1870968 167.4,31.883871 151.4,30.4387097 Z"></path>
                </g>
                <g transform="translate(9.000000, 0.000000)" id="Shape" fill="#BEBBBB">
                    <path d="M41.9,2.809375 C29.2,0.18125 22.9,-1.0875 19.1,8.065625 C43.6,8.971875 129.6,30.721875 145.4,34.8 C162.5,39.240625 64.2,7.340625 41.9,2.809375 Z"></path>
                    <path d="M72.2,24.921875 C62.5,23.471875 52.7,22.29375 42.9,21.478125 C33.1,20.6625 23.3,20.11875 13.4,20.390625 C18.3,20.6625 23.2,21.025 28.1,21.478125 C30.5,21.75 33,21.93125 35.4,22.203125 C37.8,22.475 40.3,22.65625 42.7,23.01875 C52.4,24.10625 62.1,25.375 71.8,26.825 L79,28.003125 L86.2,29.271875 C91,30.178125 95.8,31.084375 100.5,32.08125 C110,34.165625 119.5,36.521875 128.7,39.5125 C119.7,35.796875 110.4,32.9875 100.9,30.721875 C91.5,28.275 81.9,26.4625 72.2,24.921875 Z"></path>
                    <path d="M65.2,34.346875 C55.9,33.078125 46.5,32.08125 37.2,31.5375 C27.8,30.903125 18.4,30.63125 9,30.99375 C18.4,31.446875 27.7,32.171875 37.1,32.9875 C46.4,33.89375 55.7,34.890625 65,36.25 C74.3,37.51875 83.5,39.15 92.6,41.053125 C101.7,42.95625 110.8,45.221875 119.6,48.03125 C111,44.496875 102.1,41.778125 93,39.603125 C83.7,37.3375 74.5,35.615625 65.2,34.346875 Z"></path>
                    <path d="M61.1,44.859375 L68.3,45.49375 L75.5,46.309375 C77.9,46.58125 80.3,46.94375 82.7,47.215625 C85.1,47.4875 87.5,47.940625 89.8,48.303125 C99.3,49.84375 108.7,51.8375 117.8,54.828125 C109,51.203125 99.6,48.75625 90.1,46.853125 C80.6,45.040625 71,43.771875 61.3,43.046875 C51.6,42.321875 41.9,41.959375 32.2,41.959375 C27.4,41.959375 22.5,42.05 17.7,42.140625 C12.9,42.321875 8,42.503125 3.2,42.775 C12.9,43.046875 22.6,43.1375 32.2,43.409375 C41.9,43.68125 51.5,44.134375 61.1,44.859375 Z"></path>
                    <path d="M74.5,51.384375 C69.6,51.021875 64.6,50.75 59.7,50.478125 C49.8,50.025 39.9,49.84375 30,49.84375 C20.1,49.84375 10.2,50.115625 0.3,50.56875 C10.2,50.840625 20.1,51.021875 29.9,51.29375 C39.8,51.565625 49.6,51.8375 59.5,52.38125 C69.4,52.834375 79.2,53.46875 89,54.284375 C98.8,55.1 108.6,56.096875 118.4,57.45625 C108.8,55.4625 99,53.921875 89.1,52.834375 C84.3,52.2 79.4,51.8375 74.5,51.384375 Z"></path>
                    <path d="M254,2.809375 C231.7,7.340625 133.4,39.240625 150.5,34.8 C166.3,30.63125 252.3,8.971875 276.8,8.065625 C273,-1.0875 266.8,0.18125 254,2.809375 Z"></path>
                    <path d="M209.7,29.18125 L216.9,27.9125 L224.1,26.734375 C233.8,25.284375 243.5,24.015625 253.2,22.928125 C255.6,22.65625 258.1,22.384375 260.5,22.1125 C262.9,21.840625 265.4,21.659375 267.8,21.3875 C272.7,20.934375 277.6,20.571875 282.5,20.3 C272.7,20.028125 262.8,20.571875 253,21.3875 C243.2,22.203125 233.4,23.38125 223.7,24.83125 C214,26.28125 204.4,28.184375 194.8,30.540625 C185.3,32.896875 175.9,35.70625 167,39.33125 C176.3,36.340625 185.7,33.984375 195.2,31.9 C200.1,30.99375 204.9,30.0875 209.7,29.18125 Z"></path>
                    <path d="M231.1,36.159375 C240.3,34.890625 249.6,33.803125 259,32.896875 C268.3,32.08125 277.7,31.265625 287.1,30.903125 C277.7,30.63125 268.3,30.903125 258.9,31.446875 C249.5,31.990625 240.2,32.9875 230.9,34.25625 C221.6,35.525 212.4,37.246875 203.3,39.421875 C194.2,41.596875 185.2,44.315625 176.7,47.85 C185.6,45.040625 194.6,42.775 203.7,40.871875 C212.6,39.059375 221.8,37.428125 231.1,36.159375 Z"></path>
                    <path d="M263.7,41.959375 C254,41.959375 244.3,42.321875 234.6,43.046875 C224.9,43.771875 215.3,45.040625 205.8,46.853125 C196.3,48.665625 186.9,51.203125 178.1,54.828125 C187.2,51.928125 196.6,49.934375 206.1,48.303125 C208.5,47.940625 210.8,47.4875 213.2,47.215625 C215.6,46.94375 218,46.58125 220.4,46.309375 L227.6,45.49375 L234.8,44.859375 C244.4,44.134375 254.1,43.68125 263.7,43.409375 C273.4,43.1375 283,43.046875 292.7,42.775 C287.9,42.503125 283,42.321875 278.2,42.140625 C273.4,42.05 268.5,41.86875 263.7,41.959375 Z"></path>
                    <path d="M265.9,49.84375 C256,49.84375 246.1,50.025 236.2,50.478125 C231.3,50.75 226.3,51.021875 221.4,51.384375 C216.5,51.8375 211.5,52.2 206.6,52.74375 C196.8,53.83125 187,55.28125 177.3,57.365625 C187.1,56.096875 196.9,55.1 206.7,54.19375 C216.5,53.378125 226.4,52.74375 236.2,52.290625 C246.1,51.8375 255.9,51.475 265.8,51.203125 C275.7,50.93125 285.6,50.75 295.4,50.478125 C285.7,50.20625 275.8,49.84375 265.9,49.84375 Z"></path>
                </g>
                <path d="M316,58.5 L316,67 L179.656853,67 C179.956948,65.6290323 180.157012,64.1666667 180.157012,62.7956989 C180.157012,61.3333333 179.956948,59.8709677 179.656853,58.5913978 C177.556189,48.9946237 168.253245,41.7741935 157.149731,41.7741935 C146.046217,41.7741935 136.743273,48.9946237 134.642608,58.5913978 C134.342513,59.9623656 134.14245,61.4247312 134.14245,62.7956989 C134.14245,64.2580645 134.342513,65.7204301 134.642608,67 L0,67 L0,58.5 L124.839506,58.5 C127.140234,44.0591398 140.644508,33 157.049699,33 C173.454891,33 187.059196,44.0591398 189.259892,58.5 L316,58.5 Z" id="Shape" fill="#362A85"></path>
                <path d="M87.657754,36 C85.828877,43.2727273 84.4064171,48.8181818 84,53 C91.8235294,49.3636364 92.7379679,47.6363636 93.6524064,47.6363636 C95.7860963,50.0909091 99.342246,52 100.967914,53 C100.663102,45.7272727 102.593583,40.6363636 103,38.9090909 C96.9037433,37.7272727 92.3315508,36.7272727 87.657754,36 Z" id="Shape" fill="#362A85"></path>
            </g>
            <g id="wood" transform="translate(129.000000, 215.000000)">
                <path d="M26.0043602,91.165484 C20.0060809,96.4508365 17.3480827,102.667548 20.0661939,105.062598 L20.0661939,105.062598 C22.7802976,107.454116 29.8355644,105.112035 35.8298361,99.8302134 L112.998946,31.8330537 C118.997225,26.5512324 121.651216,20.3345208 118.933105,17.9394712 L118.933105,17.9394712 C116.223009,15.5444217 109.167742,17.8865029 103.169463,23.1718555 L26.0043602,91.165484 Z" id="Shape" fill="#AE8038"></path>
                <path d="M15.3738781,55 C6.87942423,55 0,57.6864639 0,61.0034597 L0,61.0034597 C0,64.3109413 6.88042735,67 15.3668562,67 L124.633138,67 C133.12358,67 139.999995,64.3135361 139.999995,61 L139.999995,61 C140.007017,57.6890587 133.12358,55 124.633138,55 L15.3738781,55 L15.3738781,55 Z" id="Shape" fill="#BE9041"></path>
                <path d="M103.165325,99.827884 C109.163309,105.11346 116.218229,107.45564 118.936206,105.060489 L118.936206,105.060489 C121.650177,102.665338 118.992309,96.4483644 112.998332,91.1698514 L35.833016,23.1662898 C29.8350317,17.8807141 22.7841191,15.5455967 20.0661415,17.9407473 L20.0661415,17.9407473 C17.348164,20.3288352 20.0060314,26.5458093 26.0040158,31.831385 L103.165325,99.827884 Z" id="Shape" fill="#AE7C31"></path>
                <path d="M100.00436,91.165484 C94.0060809,96.4508365 91.3480827,102.667548 94.0661939,105.062598 L94.0661939,105.062598 C96.7802976,107.454116 103.835564,105.112035 109.829836,99.8302134 L186.998946,31.8330537 C192.997225,26.5512324 195.651216,20.3345208 192.933105,17.9394712 L192.933105,17.9394712 C190.223009,15.5444217 183.167742,17.8865029 177.169463,23.1718555 L100.00436,91.165484 Z" id="Shape" fill="#AE8038"></path>
                <path d="M177.165325,99.827884 C183.163309,105.11346 190.218229,107.45564 192.936206,105.060489 L192.936206,105.060489 C195.650177,102.665338 192.992309,96.4483644 186.998332,91.1698514 L109.833016,23.1662898 C103.835032,17.8807141 96.7841191,15.5455967 94.0661415,17.9407473 L94.0661415,17.9407473 C91.348164,20.3288352 94.0060314,26.5458093 100.004016,31.831385 L177.165325,99.827884 Z" id="Shape" fill="#BE9041"></path>
                <path d="M198.633143,67 C207.123585,67 214,64.3143104 214,60.9982706 L214,60.9982706 C214,57.6882836 207.119572,55 198.633143,55 L89.3668568,55 C80.8764151,55 74,57.6856896 74,61.0017294 L74,61.0017294 C74,64.3117164 80.8764151,67 89.3668568,67 L198.633143,67 Z" id="Shape" fill="#B58C4F"></path>
            </g>
            <path d="M210.502,183.155 C218.76,161.677 217.166,129.21 217.166,129.21 C217.166,129.21 239.138,138.418 254.299,163.687 C268.559,187.447 255.089,222.829 255.089,222.829 C265.592,212.326 269.48,201.834 269.835,189.221 C281.629,208.053 290.751,229.636 290.751,251.473 C290.751,278.492 266.183,300.37 235.841,300.385 C205.518,300.37 180.934,278.488 180.934,251.473 C180.935,225.168 200.766,208.483 210.502,183.155 Z" id="Shape" fill="#E17A2D"></path>
            <g id="Group" opacity="0.8" transform="translate(205.000000, 196.000000)" fill="#F4E028">
                <path d="M16.282,33.168 C20.817,20.143 19.945,0.454 19.945,0.454 C19.945,0.454 63.447,33.561 60.352,74.601 C59.113,90.941 46.859,104.258 30.193,104.266 C13.546,104.259 0.046,90.986 0.046,74.601 C0.05,58.649 10.931,48.531 16.282,33.168 Z" id="Shape"></path>
            </g>
            <g id="Group" opacity="0.8" transform="translate(216.000000, 233.000000)" fill="#FFFFFF">
                <path d="M10.412,21.657 C13.286,13.403 12.728,0.928 12.728,0.928 C12.728,0.928 40.286,21.908 38.329,47.913 C37.547,58.263 29.783,66.7 19.227,66.7 C8.683,66.7 0.125,58.289 0.125,47.913 C0.122,37.802 7.018,31.397 10.412,21.657 Z" id="Shape"></path>
            </g>
        </g>
    </g>
</svg>