<?xml version="1.0" encoding="UTF-8"?>
<svg width="26px" height="32px" viewBox="0 0 26 32" version="1.1" xmlns="http://www.w3.org/2000/svg" xmlns:xlink="http://www.w3.org/1999/xlink">
    <!-- Generator: Sketch 47.1 (45422) - http://www.bohemiancoding.com/sketch -->
    <title>Slice 1</title>
    <desc>Created with Sketch.</desc>
    <defs></defs>
    <g id="Page-1" stroke="none" stroke-width="1" fill="none" fill-rule="evenodd">
        <g id="book,-audio-svg-icon">
            <g id="background">
                <rect id="Rectangle-path" x="0.002" y="0" width="32" height="32"></rect>
            </g>
            <g id="book_x5F_music" fill-rule="nonzero" fill="#2E2926">
                <path d="M26.002,0 L26.002,1.999 L24.002,1.999 L24.002,4 L26.002,4 L26.002,32 L2.002,32 C2.002,32 0.002,32 0.002,30 L0.002,3.018 C0.002,3.012 0.001,3.006 0.001,3 C-0.033,1.645 0.809,0.686 1.556,0.354 C2.295,-0.008 2.918,0.004 3.002,0 L26.002,0 M2.998,4 C3,4 3.001,4 3.002,4 L22.002,4 L22.002,1.999 L3.002,1.999 C3,2.005 2.97,1.997 2.853,2.018 C2.738,2.037 2.579,2.078 2.45,2.143 C2.195,2.314 2.035,2.353 2.002,3 C2.017,3.5 2.136,3.609 2.273,3.743 C2.418,3.869 2.675,3.955 2.852,3.982 C2.948,3.999 2.985,4 2.998,4 M4.002,30 L24.002,30 L24.002,6 L4.002,6 L4.002,30" id="Shape"></path>
                <path d="M20.002,11.219 L10.002,8.721 L10.002,16.184 C9.688,16.072 9.355,16 9.002,16 C7.344,16 6.002,17.346 6.002,19 C6.002,20.657 7.344,22 9.002,22 C10.657,22 12.002,20.657 12.002,19 L12.002,11.28 L18.002,12.781 L18.002,18.184 C17.688,18.072 17.355,17.999 17.002,17.999 C15.344,17.999 14.002,19.345 14.002,20.999 C14.002,22.656 15.344,23.999 17.002,23.999 C18.657,23.999 20.002,22.656 20.002,20.999 L20.002,11.219 Z" id="Shape"></path>
            </g>
        </g>
    </g>
</svg>