<?xml version="1.0" encoding="UTF-8"?>
<svg width="132px" height="133px" viewBox="0 0 132 133" version="1.1" xmlns="http://www.w3.org/2000/svg" xmlns:xlink="http://www.w3.org/1999/xlink">
    <!-- Generator: Sketch 47.1 (45422) - http://www.bohemiancoding.com/sketch -->
    <title>earphone_green</title>
    <desc>Created with Sketch.</desc>
    <defs>
        <ellipse id="path-1" cx="66" cy="66.2" rx="66" ry="66.2"></ellipse>
    </defs>
    <g id="Page-1" stroke="none" stroke-width="1" fill="none" fill-rule="evenodd">
        <g id="earphone_green">
            <g id="XMLID_55_">
                <g id="Mask" fill-rule="nonzero" fill="#9BC53D">
                    <ellipse id="path-1" cx="66" cy="66.2" rx="66" ry="66.2"></ellipse>
                </g>
                <g id="XMLID_139_-Clipped">
                    <g>
                        <mask id="mask-2" fill="white">
                            <use xlink:href="#path-1"></use>
                        </mask>
                        <use id="path-1" fill="#AB00CE" xlink:href="#path-1"></use>
                        <g id="XMLID_139_" opacity="0.19" mask="url(#mask-2)">
                            <g transform="translate(53.000000, 38.000000)" id="Group">
                                <g>
                                    <g id="Shape" fill="#4B5454" fill-rule="nonzero">
                                        <g>
                                            <polygon points="34.102368 0.0590476678 87.1 42.8 84.6 96.8 39.9 94.9 0.25257007 57.0108301 29.4843622 55.7772606 43.676285 45.6119962 46.9314904 16.9714479"></polygon>
                                        </g>
                                    </g>
                                </g>
                            </g>
                        </g>
                    </g>
                </g>
            </g>
            <g id="headset,-earphones,-listen,-earphone,-headphone,-headphones-svg-icon" transform="translate(34.000000, 32.000000)" fill-rule="nonzero" fill="#FFFFFF">
                <path d="M33.5,0 C14.9954375,0 0,15.040725 0,33.60105 L0,48.301575 C0,51.7755 2.81766406,54.601575 6.28125,54.601575 L9.14392969,54.601575 C10.8733672,59.485125 15.4743828,63 20.9375,63 C25.5625938,63 29.3125,59.2389 29.3125,54.601575 L29.3125,37.80105 C29.3125,33.16005 25.5625938,29.39895 20.9375,29.39895 C17.7518594,29.39895 14.8771406,30.62535 12.6645703,32.5836 C13.2047578,21.482475 22.3031484,12.598425 33.5,12.598425 C44.6968516,12.598425 53.7952422,21.482475 54.3354297,32.5836 C52.1228594,30.62535 49.2481406,29.39895 46.0625,29.39895 C41.4374063,29.39895 37.6875,33.16005 37.6875,37.80105 L37.6875,54.601575 C37.6875,59.2389 41.4374063,63 46.0625,63 C51.5261406,63 56.1266328,59.485125 57.8560703,54.601575 L60.71875,54.601575 C64.1823359,54.601575 67,51.7755 67,48.301575 L67,33.60105 C67,15.040725 52.0045625,0 33.5,0 Z M6.48387097,50.6896552 C5.28921774,50.6896552 4.32258065,49.7185287 4.32258065,48.518327 L4.32258065,46.3448276 L6.48387097,46.3448276 C7.67852419,46.3448276 8.64516129,47.3159541 8.64516129,48.518327 L8.64516129,50.6896552 L6.48387097,50.6896552 Z M20.4121864,33.3103448 C22.6646711,33.3103448 24.4946237,35.2016238 24.4946237,37.5343068 L24.4946237,54.4306825 C24.4946237,56.7617815 22.6646711,58.6551724 20.4121864,58.6551724 C15.9112993,58.6551724 12.2473118,54.8636386 12.2473118,50.2067206 L12.2473118,41.7587967 C12.2473118,37.1013507 15.9112993,33.3103448 20.4121864,33.3103448 Z M33.5,8.56815579 C19.6886601,8.56815579 8.49078341,19.9084568 8.49078341,33.895989 L8.49078341,42.3389518 L8.49078341,42.7241379 C7.83533353,42.4893327 7.13924366,42.3389518 6.40668203,42.3389518 L4.32258065,42.3389518 L4.32258065,33.895989 C4.32258065,17.6020891 17.4123004,4.34482759 33.5,4.34482759 C49.5866575,4.34482759 62.6774194,17.6020891 62.6774194,33.895989 L62.6774194,42.3389518 L60.593318,42.3389518 C59.8607563,42.3389518 59.1646665,42.4893327 58.5092166,42.7241379 L58.5092166,42.3389518 L58.5092166,33.895989 C58.5092166,19.9084568 47.3113399,8.56815579 33.5,8.56815579 Z M54.0322581,50.2067206 C54.0322581,54.8636386 50.3682706,58.6551724 45.8673835,58.6551724 C43.6148987,58.6551724 41.7849462,56.7617815 41.7849462,54.4306825 L41.7849462,37.5343068 C41.7849462,35.2016238 43.6148987,33.3103448 45.8673835,33.3103448 C50.3682706,33.3103448 54.0322581,37.1013507 54.0322581,41.7587967 L54.0322581,50.2067206 Z M60.516129,50.6896552 L58.3548387,50.6896552 L58.3548387,48.518327 C58.3548387,47.3159541 59.3214758,46.3448276 60.516129,46.3448276 L62.6774194,46.3448276 L62.6774194,48.518327 C62.6774194,49.7185287 61.7107823,50.6896552 60.516129,50.6896552 Z" id="Shape"></path>
            </g>
        </g>
    </g>
</svg>