<?xml version="1.0" encoding="UTF-8"?>
<svg width="20px" height="18px" viewBox="0 0 20 18" version="1.1" xmlns="http://www.w3.org/2000/svg" xmlns:xlink="http://www.w3.org/1999/xlink">
    <!-- Generator: Sketch 47.1 (45422) - http://www.bohemiancoding.com/sketch -->
    <title>Slice 1</title>
    <desc>Created with Sketch.</desc>
    <defs></defs>
    <g id="Page-1" stroke="none" stroke-width="1" fill="none" fill-rule="evenodd">
        <g id="star-svg-icon" fill-rule="nonzero" fill="#2E2926">
            <path d="M14.855,17.966 C14.631,17.966 14.412,17.916 14.209,17.82 C14.174,17.806 14.14,17.789 14.105,17.769 L9.998,15.426 L5.891,17.77 C5.856,17.79 5.821,17.807 5.785,17.823 C5.297,18.051 4.7,17.997 4.264,17.68 C3.795,17.34 3.563,16.747 3.678,16.171 L4.635,11.529 C4.261,11.189 3.673,10.654 3.033,10.072 L1.138,8.347 C1.111,8.322 1.083,8.294 1.06,8.265 C0.685,7.869 0.551,7.295 0.72,6.773 C0.893,6.249 1.34,5.861 1.88,5.764 C1.914,5.756 1.947,5.75 1.982,5.746 L6.683,5.225 L8.629,0.915 C8.646,0.877 8.665,0.84 8.689,0.805 C8.951,0.332 9.453,0.034 9.998,0.034 C10.541,0.034 11.042,0.332 11.307,0.804 C11.328,0.84 11.348,0.877 11.367,0.916 L13.315,5.228 L18.016,5.749 C18.05,5.752 18.084,5.758 18.12,5.766 C18.659,5.866 19.106,6.252 19.278,6.778 C19.448,7.299 19.313,7.876 18.938,8.272 C18.914,8.298 18.887,8.326 18.86,8.35 L15.362,11.534 L16.319,16.166 C16.432,16.753 16.201,17.344 15.729,17.685 C15.477,17.867 15.173,17.966 14.855,17.966 Z M6.706,11.402 C6.667,11.584 6.24,13.648 5.861,15.484 L9.504,13.407 C9.811,13.232 10.188,13.232 10.494,13.407 L14.137,15.482 L13.288,11.378 C13.217,11.032 13.333,10.673 13.596,10.436 L16.696,7.614 L12.528,7.153 C12.177,7.114 11.874,6.893 11.727,6.569 L9.999,2.748 L8.273,6.569 C8.127,6.891 7.823,7.112 7.472,7.153 L3.304,7.614 L6.404,10.436 C6.676,10.682 6.788,11.053 6.706,11.402 Z" id="Shape"></path>
        </g>
    </g>
</svg>